<svg class="icon" viewBox="0 0 1358 1024" version="1.1" xmlns="http://www.w3.org/2000/svg" width="256" height="256">
    <path d="M325.565072 415.978248c-93.950327 16.678484-160.353046 98.501438-149.450458 188.272105 5.809359 47.552418 29.347974 89.774013 89.90787 101.898039 160.657569 32.30285 767.123242 153.901176 886.275346-56.788497 92.896209-164.191373 37.533281-277.878797-48.740392-349.036758-86.273673-71.157961-264.934902-56.383582-412.789124-7.676653-109.94949 36.308497-191.705516 92.491294-365.203242 123.331764z" fill="#E6E6E6" opacity=".3" />
    <path d="M698.341229 875.165281c302.056575 0 546.919739-18.097359 546.919738-40.421229s-244.863163-40.417882-546.919738-40.417882-546.919739 18.094013-546.919739 40.417882c0 22.323869 244.863163 40.421229 546.919739 40.421229z" fill="#E6E6E6" opacity=".45" />
    <path d="M391.696732 273.558588c35.903582 0 65.010614-29.107033 65.010614-65.010614 0-35.906928-29.107033-65.010614-65.010614-65.010615-35.906928 0-65.010614 29.107033-65.010614 65.010615 0 35.906928 29.103686 65.010614 65.010614 65.010614z" fill="#FFD200" />
    <path d="M391.696732 332.488784c68.450719 0 123.94081-55.490092 123.94081-123.94081s-55.490092-123.944157-123.94081-123.944157S267.755922 140.097255 267.755922 208.547974s55.490092 123.94081 123.94081 123.94081z" fill="#FFD200" opacity=".15" />
    <path d="M664.683085 832.876758c95.988288 0 173.802248-77.813961 173.802248-173.802248 0-95.991634-77.813961-173.805595-173.802248-173.805595-95.991634 0-173.805595 77.813961-173.805595 173.805595 0 95.988288 77.813961 173.802248 173.805595 173.802248z" fill="#24285B" />
    <path d="M664.679739 768.478536c60.422693 0 109.404026-48.98468 109.404026-109.404026 0-60.422693-48.981333-109.407373-109.404026-109.407373-60.422693 0-109.404026 48.98468-109.404027 109.407373 0 60.419346 48.981333 109.404026 109.404027 109.404026z" fill="#FFFFFF" />
    <path d="M454.840052 700.54651c11.511634 0 15.65783 4.14285 15.65783 15.624366v19.80068c0 11.51498-3.396601 15.65783-15.65783 15.65783h-31.760732v60.292183c0 11.47817-4.14285 15.624366-15.65783 15.624366h-22.551425c-11.481516 0-15.624366-4.146196-15.624366-15.624366v-60.292183H217.382484c-11.47817 0-15.627712-4.14285-15.627713-15.65783v-16.574746a30.566065 30.566065 0 0 1 5.437909-18.8503l152.847059-189.634092a27.376941 27.376941 0 0 1 22.076235-11.036444h25.476183c11.51498 0 15.65783 3.225935 15.65783 15.65783v185.012706h31.590065z m-85.594353-123.365229l-99.896889 123.365229h99.896889v-123.365229zM1112.114196 700.54651c11.51498 0 15.65783 4.14285 15.65783 15.624366v19.80068c0 11.51498-3.225935 15.65783-15.65783 15.65783h-31.757386v60.292183c0 11.47817-4.14285 15.624366-15.65783 15.624366h-22.554771c-11.47817 0-15.624366-4.146196-15.624366-15.624366v-60.292183h-151.893333c-11.481516 0-15.624366-4.14285-15.624366-15.65783v-16.574746a30.545987 30.545987 0 0 1 5.50149-18.8503l152.847059-189.634092a27.417098 27.417098 0 0 1 22.076235-11.036444h25.305516c11.51498 0 15.65783 3.225935 15.657831 15.65783v185.012706h31.723921z m-85.594353-123.365229l-99.893542 123.365229h99.893542v-123.365229z" fill="#21A675" />
    <path d="M1043.944575 462.851346s-28.902902-7.880784-35.187451-34.816c0 0 44.801673-9.035294 46.090039 37.195295l-10.902588-2.379295z" fill="#21A675" opacity=".58" />
    <path d="M1047.511843 459.996863s-20.208941-31.961516-2.446222-61.818144c0 0 33.966013 21.637856 18.954039 61.888418l-16.507817-0.070274z" fill="#21A675" opacity=".73" />
    <path d="M1052.70881 460.030327s10.664993-33.761882 42.967844-40.146824c0 0 6.046954 21.908915-20.925072 40.217098l-22.042772-0.070274z" fill="#21A675" />
    <path d="M1031.750275 459.250614l5.842823 40.11336 36.920889 0.170667 5.434562-40.079896-48.198274-0.204131z" fill="#24285B" />
    <path d="M685.705203 430.856366s4.755242 22.926222 2.683817 38.821647a11.745882 11.745882 0 0 1-13.278536 10.189804c-7.984523-1.15451-18.445386-5.026301-22.487843-16.983007l-9.373282-19.52962a21.105778 21.105778 0 0 1 6.555608-23.438223c12.023634-11.073255 33.694954-3.021804 35.900236 10.939399z" fill="#F4A28C" />
    <path d="M644.945987 446.785255l-3.058614 76.796653 42.425725-1.35864-14.81119-55.329464-24.555921-20.108549z" fill="#F4A28C" />
    <path d="M680.033046 432.486065a92.929673 92.929673 0 0 1-21.637856 0.916915 19.549699 19.549699 0 0 1 2.516496 21.296523 15.912157 15.912157 0 0 1-18.341647 8.560105l-3.159006-29.95702a23.759477 23.759477 0 0 1 9.510483-22.554771 82.304837 82.304837 0 0 1 9.406745-6.080418c8.185307-4.484183 21.46719-0.237595 28.497987-6.96387a5.672157 5.672157 0 0 1 9.339817 2.650353c2.446222 8.931556 2.51315 23.438222-9.202614 29.856628a21.667974 21.667974 0 0 1-6.930405 2.275555z" fill="#24285B" />
    <path d="M663.321098 453.71566s-1.221438-8.968366-7.880784-7.472523c-6.656 1.492497-4.956026 14.433046 4.350327 14.536785l3.530457-7.064262zM687.947294 445.460078l7.572915 8.185308a3.761359 3.761359 0 0 1-0.066928 5.163503 3.781438 3.781438 0 0 1-1.596235 0.987189l-8.693961 2.713935 2.784209-17.049935z" fill="#F4A28C" />
    <path d="M673.273307 478.883974a27.989333 27.989333 0 0 1-14.603712-6.522144s2.242092 13.890928 19.225098 25.847634l-4.621386-19.32549z" fill="#CE8172" opacity=".31" />
    <path d="M641.957647 523.581908l42.425726-1.35864s66.640314-11.31085 89.770666 43.034771c23.130353 54.345621-6.522144 131.142275-6.522144 131.142275s-24.114196 81.076706-125.674248 72.111686c0 0-84.473307-4.892444-94.017255-120.681412a113.11519 113.11519 0 0 0-2.309019-15.011974c-3.871791-18.104052-6.113882-73.028601 96.326274-109.236706z" fill="#21A675" />
    <path d="M585.13234 595.727059s22.621699 2.479686 54.041098 55.091869c31.416052 52.612183 93.10034 33.320157 127.879529-5.605229l-64.535425 85.390223-72.279006-5.806014-39.296837-104.61532-5.809359-24.455529z" fill="#000000" opacity=".08" />
    <path d="M832.853333 473.948026l-12.425202 1.659817 4.832209 36.157909 12.421856-1.659817-4.828863-36.157909z" fill="#FFD200" />
    <path d="M832.853333 473.948026l-12.425202 1.659817 4.832209 36.157909 12.421856-1.659817-4.828863-36.157909z" fill="#000000" opacity=".08" />
    <path d="M839.837281 499.604915l-19.091242 2.549961 6.204236 46.42468 19.087895-2.549961-6.200889-46.42468z" fill="#24285B" />
    <path d="M815.184314 399.132444a41.087163 41.087163 0 0 0-33.430589 54.027713 41.100549 41.100549 0 1 0 33.430589-54.027713z m9.306353 69.491451a29.003294 29.003294 0 0 1-16.651713-2.690509 29.066876 29.066876 0 0 1-16.223372-27.90902 29.050144 29.050144 0 0 1 36.449045-26.24251 29.023373 29.023373 0 0 1 21.323295 24.234667 29.076915 29.076915 0 0 1-24.760053 32.607372h-0.137202z" fill="#FFD200" />
    <path d="M820.856471 469.169359a29.180654 29.180654 0 1 0 0-58.35796 29.180654 29.180654 0 0 0 0 58.35796z" fill="#FFFFFF" />
    <path d="M546.85281 601.43268a20.975268 20.975268 0 0 1 17.217255-15.49051 20.992 20.992 0 0 1 20.995347 9.784889 481.045752 481.045752 0 0 1 40.759215 82.843608c24.284863 64.736209 143.370039 22.042771 187.321726-128.90353l25.067922 15.590902s-34.578405 196.052497-173.772131 203.253961c0 0-86.886065 17.592052-113.275817-89.024418 0 0-6.793203-20.075085-7.201464-31.419399l-1.83383-12.769882a107.637124 107.637124 0 0 1 4.484183-33.527634l0.237594-0.337987z" fill="#21A675" />
    <path d="M546.85281 601.43268a20.975268 20.975268 0 0 1 17.217255-15.49051 20.992 20.992 0 0 1 20.995347 9.784889 481.045752 481.045752 0 0 1 40.759215 82.843608c24.284863 64.736209 143.370039 22.042771 187.321726-128.90353l25.067922 15.590902s-34.578405 196.052497-173.772131 203.253961c0 0-86.886065 17.592052-113.275817-89.024418 0 0-6.793203-20.075085-7.201464-31.419399l-1.83383-12.769882a107.637124 107.637124 0 0 1 4.484183-33.527634l0.237594-0.337987z" fill="#FFFFFF" opacity=".39" />
    <path d="M819.49783 553.472s2.546614-32.30285 15.861961-32.232575c13.315346 0.066928 44.597542 23.98034-3.701124 39.772026l-12.160837-7.539451z" fill="#F4A28C" />
    <path d="M1166.697412 306.845281a22.969725 22.969725 0 0 0-22.959687-22.959686c-1.241516 0-2.479686 0.100392-3.701124 0.301176a30.910745 30.910745 0 0 0-27.17281-16.30034h-1.121046a36.753569 36.753569 0 1 0-71.328627 0h-1.121046a30.991059 30.991059 0 0 0-22.564811 8.697308 30.960941 30.960941 0 0 0-6.980601 34.354196 30.957595 30.957595 0 0 0 29.545412 18.867032h107.432993v-0.200784a22.983111 22.983111 0 0 0 19.971347-22.758902zM274.104052 534.113046a19.696941 19.696941 0 0 0-19.696941-19.700288 23.776209 23.776209 0 0 0-3.159006 0.271059 26.523608 26.523608 0 0 0-23.401412-13.961203h-0.953726a31.509752 31.509752 0 0 0-16.738719-36.00732 31.499712 31.499712 0 0 0-27.661385 0 31.523137 31.523137 0 0 0-16.738719 36.00732h-0.950379a26.536993 26.536993 0 0 0-19.392419 7.432366 26.526954 26.526954 0 0 0-8.118379 19.114667 26.547033 26.547033 0 0 0 17.056628 24.800209 26.536993 26.536993 0 0 0 10.45417 1.743477h92.14996v-0.170666a19.743791 19.743791 0 0 0 17.153674-19.529621z" fill="#E6E6E6" />
</svg>