<?xml version="1.0" encoding="utf-8"?>
<!-- Generator: Adobe Illustrator 26.0.3, SVG Export Plug-In . SVG Version: 6.00 Build 0)  -->
<svg xmlns:xlink="http://www.w3.org/1999/xlink" version="1.0" id="katman_1" xmlns="http://www.w3.org/2000/svg" x="0px" y="0px"
     viewBox="0 0 600 450" style="enable-background:new 0 0 600 450;" xml:space="preserve">
<style type="text/css">
	.st0{fill:#21A675;}
	.st1{fill:#A4E2C6;}
	.st2{fill:#424C50;}
	.st3{fill:#FA9D3C;}
	.st4{fill:#FDFDFB;}
	.st5{fill:#93603B;}
</style>
    <symbol id="snail" viewBox="-30 -29 60 58.1">
	<path class="st0" d="M-2.4,10.8c0,0-4.7-20.8-13.1-20.8c-15.1,0-15.5,27.8-5.3,37c3.1,2.8,16.1,2.8,43.5,0c2.9-0.3,1.8-3.1-2.3-5
		C17.7,20.7,4.6,18.2-2.4,10.8" />
        <g>
		<ellipse class="st1" cx="-4.2" cy="7.7" rx="3.9" ry="6.7" />
            <ellipse class="st1" cx="-0.5" cy="21.4" rx="2.4" ry="2.7" />
            <ellipse class="st1" cx="-9.5" cy="16.5" rx="1.8" ry="3.1" />
            <ellipse class="st1" cx="-11.8" cy="4.4" rx="1.4" ry="2.1" />
	</g>
        <path class="st2" d="M-22.4-5.9c0,1.2,0.4,2.3,1.1,2.9c0.3,0.3,0.7,0.5,1.1,0.7c0.2,0.1,0.4,0.1,0.6,0.1c0,0,0.3,0,0.4,0
		s0.2,0,0.3,0c0.9,0,1.8-0.3,2.5-0.9c0.7-0.6,1.2-1.6,1.6-2.8c0.4,1.2,0.4,2.6-0.4,3.8c-0.8,1.2-2.3,1.9-3.7,1.9c-0.2,0-0.3,0-0.5,0
		c-0.2,0-0.3,0-0.5-0.1c-0.4-0.1-0.7-0.2-1.1-0.3c-0.7-0.3-1.3-0.8-1.6-1.5C-23.3-3.3-23.2-4.9-22.4-5.9" />
        <path class="st3" d="M26.9,10.2C30.3,6,30.8-1,28.9-5.2c-2.8-6.2-8.3-7.1-8.3-7.1c-7.4-11.9-27.8-11.9-34,2.7
		C-8.1-6.4-5.1,2.2-3.4,7c1.6,6.3,4.7,12,9.8,13.5C8.6,21,9,18.8,9,18.8c1.4,2,4.3,3.4,6.9,2.7C25.6,18.7,26.9,10.2,26.9,10.2" />
        <g>
		<path class="st0" d="M-17.5-7.8l-2.6,0.9l-2.5-6.9l2.6-0.9L-17.5-7.8z" />
            <path class="st0" d="M-11.7-5.3l-2.5-1.1l3.1-6.7l2.5,1.2L-11.7-5.3z" />
            <path class="st0" d="M-13-19.4c0,4.7-3.8,8.5-8.5,8.5s-8.5-3.8-8.5-8.5s3.8-8.5,8.5-8.5C-16.8-27.8-13-23.9-13-19.4" />
	</g>
        <path class="st4" d="M-16.6-19c0,3.7-2.9,6.6-6.4,6.6c-3.6,0-6.4-3-6.4-6.6c0-3.7,2.9-6.6,6.4-6.6S-16.6-22.6-16.6-19" />
        <path class="st2" d="M-17.4-19c0,2.5-2,4.6-4.4,4.6s-4.4-2-4.4-4.6c0-2.5,2-4.6,4.4-4.6C-19.3-23.5-17.4-21.5-17.4-19" />
        <g>
		<path class="st5" d="M9.1,18.7c-1.9-2.9-3.3-6.2-4-9.6C4.4,5.5,4.4,2,5.2-1.6s2.5-6.9,5.3-9.3c1.4-1.2,3.1-2,4.9-2.3
			c1.8-0.3,3.6,0,5.2,0.8c-1.7-0.4-3.4-0.4-5,0.1s-2.9,1.4-4.1,2.5c-1.1,1.1-2.1,2.5-2.8,4s-1.3,3-1.6,4.6C6.3,2,6.2,5.4,6.6,8.7
			C7.1,12.1,7.9,15.4,9.1,18.7" />
            <path class="st5" d="M26.9,10.2c-0.7,0.9-1.6,1.6-2.6,2.2c-1,0.6-2.1,1-3.4,1.1c-1.2,0.1-2.5-0.3-3.6-1S15.4,11,14.7,10
			c-1.4-2-1.9-4.7-1.6-7.1c0.3-2.4,1.4-4.8,3.1-6.6c0.9-0.9,1.9-1.7,3.2-2.1C20.6-6.3,22-6.4,23.3-6c1.4,0.4,2.5,1.4,3.1,2.5
			C27-2.3,27.3-1,27.2,0.2c-0.1,1.3-0.5,2.6-1.5,3.5c-0.9,1-2.5,1.5-3.8,0.8S20,2.5,20.3,1.1c0.2-0.7,0.6-1.2,1.2-1.5
			c0.3-0.1,0.7-0.2,1,0c0.3,0.1,0.5,0.3,0.7,0.6c-1-0.9-2,0.3-2.1,1.1c-0.1,0.9,0.5,1.9,1.3,2.2c0.4,0.2,0.8,0.1,1.3,0
			c0.4-0.1,0.8-0.4,1.1-0.7c0.6-0.7,0.9-1.7,0.9-2.7s-0.2-2-0.7-2.8s-1.2-1.4-2.1-1.6c-1.8-0.5-3.8,0.4-5.2,1.9
			C14.9,0.5,14,5.5,16.1,9.1c1,1.8,2.7,3.3,4.8,3.4C23,12.6,25.2,11.5,26.9,10.2" />
	</g>
        <path class="st0" d="M2.3-19.4c0,5.4-4.4,9.7-9.8,9.7s-9.8-4.4-9.8-9.7c0-5.4,4.4-9.7,9.8-9.7S2.3-24.6,2.3-19.4" />
        <ellipse class="st4" cx="-9.3" cy="-18.9" rx="7.4" ry="7.6" />
        <path class="st2" d="M-2.7-18.9c0,2.9-2.3,5.3-5.1,5.3s-5.1-2.4-5.1-5.3s2.3-5.3,5.1-5.3S-2.7-21.8-2.7-18.9" />
</symbol>
    <use xlink:href="#snail" width="60" height="58.1" x="-30" y="-29" transform="matrix(5.0964 0 0 5.0964 300 225)" style="overflow:visible;" />
</svg>