<svg t="1733997522763" class="icon" viewBox="0 0 1024 1024" version="1.1" xmlns="http://www.w3.org/2000/svg" p-id="24111" width="256" height="256">
    <path d="M512 0a512 512 0 1 1 0 1024A512 512 0 0 1 512 0z m295.488 296.512a365.696 365.696 0 1 0-0.512 431.68l-155.712-97.664-8.704 9.6a182.848 182.848 0 1 1 16.64-236.416l157.376-94.08z m0.192 104h-26.624l-4.288 38.464h-32.64l-3.2 44.992h30.784l-6.272 56.32h-30.912l-3.2 45.056h29.056l-4.608 41.28h26.496l4.672-41.28h30.72l-4.608 41.28h26.432l4.672-41.28h20.736l3.2-44.992h-18.88l6.272-56.32h19.008l3.2-45.056h-17.088l4.288-38.464h-26.624l-4.224 38.464h-30.72l4.352-38.464z m21.312 83.456l-6.4 56.32h-30.72l6.4-56.32h30.72z" fill="#21A675" p-id="24112"></path>
</svg>